<?xml version="1.0" encoding="utf-8"?>
<!-- Generator: Adobe Illustrator 26.5.0, SVG Export Plug-In . SVG Version: 6.00 Build 0)  -->
<svg version="1.1" id="Слой_3" xmlns="http://www.w3.org/2000/svg" xmlns:xlink="http://www.w3.org/1999/xlink" x="0px" y="0px"
	 viewBox="0 0 548.9 548.85" style="enable-background:new 0 0 548.9 548.85;" xml:space="preserve">
<style type="text/css">
	.st0{fill:#D32042;stroke:#FEF1E6;stroke-width:14.9237;stroke-linecap:round;stroke-linejoin:round;stroke-miterlimit:10;}
	.st1{fill:#AA1736;stroke:#FEF1E6;stroke-width:14.9237;stroke-linecap:round;stroke-linejoin:round;stroke-miterlimit:10;}
	.st2{fill:#FEF1E6;}
</style>
<g>
	<path class="st0" d="M51.19,474.5C17.01,431,8.99,360.41,7.46,274.41c1.68-94.5,11.16-170.43,54.73-212.25
		c41.82-43.54,117.75-53.05,212.25-54.7c94.54,1.64,170.43,11.16,212.25,54.7c21.94,21.04,35.22,50.7,43.24,87.04
		C315,155.32,131.63,287.54,51.19,474.5z"/>
	<path class="st1" d="M541.44,274.41c-1.68,94.54-11.16,170.43-54.73,212.25c-41.82,43.58-117.71,53.05-212.25,54.73
		c-67.16-1.19-124.95-6.34-167.78-24.85c67.53-173.82,235.31-297.62,432.34-300.34C540.35,234.64,541.06,254.12,541.44,274.41z"/>
	<g>
		<circle class="st2" cx="394.74" cy="450.14" r="27.7"/>
		<circle class="st2" cx="394.74" cy="339.33" r="27.7"/>
		<circle class="st2" cx="450.14" cy="394.74" r="27.7"/>
		<circle class="st2" cx="338.78" cy="394.74" r="27.7"/>
	</g>
	<path class="st2" d="M210.08,126.69H182.1V98.71c0-15.3-12.4-27.7-27.7-27.7l0,0c-15.3,0-27.7,12.4-27.7,27.7v27.98H98.72
		c-15.3,0-27.7,12.4-27.7,27.7s12.4,27.7,27.7,27.7h27.98v27.98c0,15.3,12.4,27.7,27.7,27.7l0,0c15.3,0,27.7-12.4,27.7-27.7v-27.98
		h27.98c15.3,0,27.7-12.4,27.7-27.7S225.38,126.69,210.08,126.69z"/>
</g>
</svg>
